<svg width="32" height="32" viewBox="0 0 32 32" fill="none" xmlns="http://www.w3.org/2000/svg">
<g clip-path="url(#clip0_70_581)">
<path d="M4.45341 22.6667C3.88977 21.692 3.45163 20.6499 3.14941 19.5653C3.80716 19.2308 4.35954 18.7208 4.74545 18.0919C5.13137 17.4629 5.33577 16.7394 5.33604 16.0015C5.33632 15.2636 5.13246 14.5399 4.74702 13.9107C4.36157 13.2814 3.80957 12.771 3.15208 12.436C3.7548 10.2567 4.90239 8.26661 6.48675 6.65334C7.10554 7.05564 7.82357 7.27889 8.56138 7.29838C9.2992 7.31787 10.028 7.13285 10.6672 6.76378C11.3064 6.39472 11.831 5.85601 12.1829 5.20726C12.5349 4.55852 12.7005 3.82504 12.6614 3.08801C14.8509 2.52217 17.1484 2.52309 19.3374 3.09067C19.2987 3.82769 19.4646 4.56106 19.8169 5.20962C20.1691 5.85818 20.6939 6.39664 21.3332 6.76542C21.9725 7.1342 22.7013 7.31892 23.4391 7.29914C24.1769 7.27936 24.8948 7.05585 25.5134 6.65334C26.2854 7.44001 26.9707 8.33468 27.5467 9.33334C28.1241 10.332 28.5561 11.3733 28.8507 12.4347C28.193 12.7692 27.6406 13.2792 27.2547 13.9081C26.8688 14.5371 26.6644 15.2606 26.6641 15.9985C26.6638 16.7365 26.8677 17.4601 27.2531 18.0893C27.6386 18.7186 28.1906 19.229 28.8481 19.564C28.2454 21.7434 27.0978 23.7334 25.5134 25.3467C24.8946 24.9444 24.1766 24.7211 23.4388 24.7016C22.701 24.6821 21.9721 24.8672 21.333 25.2362C20.6938 25.6053 20.1692 26.144 19.8172 26.7928C19.4653 27.4415 19.2997 28.175 19.3387 28.912C17.1493 29.4778 14.8518 29.4769 12.6627 28.9093C12.7015 28.1723 12.5355 27.439 12.1833 26.7904C11.8311 26.1418 11.3063 25.6034 10.667 25.2346C10.0277 24.8658 9.29882 24.6811 8.56105 24.7009C7.82328 24.7207 7.10536 24.9442 6.48675 25.3467C5.69873 24.5426 5.01554 23.6421 4.45341 22.6667ZM12.0001 22.928C13.4209 23.7475 14.4892 25.0627 15.0001 26.6213C15.6654 26.684 16.3334 26.6853 16.9987 26.6227C17.5099 25.0638 18.5787 23.7486 20.0001 22.9293C21.4204 22.1076 23.0941 21.8393 24.7001 22.176C25.0867 21.632 25.4201 21.052 25.6974 20.4453C24.6033 19.2233 23.9989 17.6403 24.0001 16C24.0001 14.32 24.6267 12.7507 25.6974 11.5547C25.4181 10.9482 25.0834 10.3689 24.6974 9.82401C23.0925 10.1604 21.4198 9.89264 20.0001 9.07201C18.5792 8.2525 17.511 6.93732 17.0001 5.37867C16.3347 5.31601 15.6667 5.31467 15.0014 5.37734C14.4902 6.9362 13.4214 8.25142 12.0001 9.07067C10.5798 9.89243 8.90605 10.1607 7.30008 9.82401C6.91417 10.3684 6.58026 10.9478 6.30275 11.5547C7.39684 12.7768 8.00126 14.3597 8.00008 16C8.00008 17.68 7.37341 19.2493 6.30275 20.4453C6.58204 21.0518 6.9168 21.6312 7.30275 22.176C8.9077 21.8396 10.5804 22.1074 12.0001 22.928ZM16.0001 20C14.9392 20 13.9218 19.5786 13.1717 18.8284C12.4215 18.0783 12.0001 17.0609 12.0001 16C12.0001 14.9391 12.4215 13.9217 13.1717 13.1716C13.9218 12.4214 14.9392 12 16.0001 12C17.0609 12 18.0784 12.4214 18.8285 13.1716C19.5787 13.9217 20.0001 14.9391 20.0001 16C20.0001 17.0609 19.5787 18.0783 18.8285 18.8284C18.0784 19.5786 17.0609 20 16.0001 20ZM16.0001 17.3333C16.3537 17.3333 16.6928 17.1929 16.9429 16.9428C17.1929 16.6928 17.3334 16.3536 17.3334 16C17.3334 15.6464 17.1929 15.3072 16.9429 15.0572C16.6928 14.8072 16.3537 14.6667 16.0001 14.6667C15.6465 14.6667 15.3073 14.8072 15.0573 15.0572C14.8072 15.3072 14.6667 15.6464 14.6667 16C14.6667 16.3536 14.8072 16.6928 15.0573 16.9428C15.3073 17.1929 15.6465 17.3333 16.0001 17.3333Z" fill="white"/>
</g>
<defs>
<clipPath id="clip0_70_581">
<rect width="32" height="32" fill="white"/>
</clipPath>
</defs>
</svg>
