<svg width="84" height="72" viewBox="0 0 84 72" fill="none" xmlns="http://www.w3.org/2000/svg">
<path fill-rule="evenodd" clip-rule="evenodd" d="M0 3.41006C0 1.78032 1.7114 0.717272 3.17243 1.4396L27.3079 13.372V67.9125C27.3079 70.3802 24.6967 71.9734 22.5023 70.8447L1.19263 59.8826C0.460302 59.5059 0 58.7514 0 57.9279V3.41006Z" fill="url(#paint0_linear_214_201)"/>
<path fill-rule="evenodd" clip-rule="evenodd" d="M27.2982 13.3769L55.2322 59.4221L27.2982 45.3219V13.3769Z" fill="url(#paint1_linear_214_201)"/>
<path fill-rule="evenodd" clip-rule="evenodd" d="M54.6257 1.02674C55.2337 0.061509 56.4792 -0.278113 57.4931 0.244837L83.5161 13.6666L55.2019 59.3966L36.8847 29.1885L54.6257 1.02674Z" fill="url(#paint2_linear_214_201)"/>
<path fill-rule="evenodd" clip-rule="evenodd" d="M55.2092 59.3952L83.5118 13.6583L83.684 64.9217C83.6978 69.0337 79.3563 71.7036 75.6928 69.8362L55.2092 59.3952Z" fill="url(#paint3_linear_214_201)"/>
<defs>
<linearGradient id="paint0_linear_214_201" x1="-6.51433" y1="-27.9272" x2="182.855" y2="-3.98552" gradientUnits="userSpaceOnUse">
<stop stop-color="#3A8EF6"/>
<stop offset="1" stop-color="#6F3AFA"/>
</linearGradient>
<linearGradient id="paint1_linear_214_201" x1="20.921" y1="-7.91269" x2="89.3954" y2="107.347" gradientUnits="userSpaceOnUse">
<stop stop-color="#3D93FF"/>
<stop offset="1" stop-color="#65A8FB"/>
</linearGradient>
<linearGradient id="paint2_linear_214_201" x1="-6.51433" y1="-27.9272" x2="182.855" y2="-3.98552" gradientUnits="userSpaceOnUse">
<stop stop-color="#3A8EF6"/>
<stop offset="1" stop-color="#6F3AFA"/>
</linearGradient>
<linearGradient id="paint3_linear_214_201" x1="62.3279" y1="7.34905" x2="121.245" y2="49.669" gradientUnits="userSpaceOnUse">
<stop stop-color="#65A8FB"/>
<stop offset="1" stop-color="#65A8FB"/>
</linearGradient>
</defs>
</svg>
