<svg width="209" height="548" viewBox="0 0 209 548" fill="none" xmlns="http://www.w3.org/2000/svg">
<path d="M145.575 77.3442L148.292 78.2931C162.049 83.0406 165.324 98.0524 163.406 116.553C163.483 119.544 163.9 122.442 164.658 125.247C174.866 154.444 169.592 156.137 175.647 180.769C175.731 181.07 175.73 181.269 175.73 181.568C177.928 185.995 176.976 224.845 175.128 248.927C175.211 249.427 175.21 249.826 175.124 250.322C174.336 259.078 174.169 258.078 175.096 261.085C176.023 264.093 179.636 279.709 179.719 280.608C179.885 282.006 179.882 283.401 179.708 284.693C179.017 289.065 178.323 294.434 176.792 294.903C175.935 297.577 174.57 299.345 173.719 299.827C171.671 302.878 171.071 304.76 170.222 304.345C169.373 303.93 169.036 302.728 169.379 301.737C169.379 301.737 169.379 301.737 169.379 301.638C169.723 300.349 169.295 301.337 168.611 302.819C167.757 304.597 166.987 306.476 166.391 306.863C163.93 305.122 165.555 301.465 167.007 298.702C167.861 297.124 166.581 299.093 165.043 302.053C163.676 304.718 162.31 307.084 161.971 306.778C158.748 304.126 162.848 296.331 163.531 295.447C163.453 292.854 163.459 290.363 163.551 287.773C162.875 286.066 162.373 283.166 162.044 278.875C161.7 280.562 161.186 282.147 160.672 283.732C159.904 284.714 162.006 293.524 156.226 293.414C156.235 290.025 156.248 285.342 156.256 282.153C156.263 279.561 156.96 272.897 156.967 270.306C156.974 267.715 161.921 261.033 162.177 260.739C162.358 256.656 162.199 252.467 161.87 248.375C161.87 248.275 161.87 248.076 161.956 247.978C160.876 238.191 158.268 228.175 156.499 221.962C154.731 215.749 151.533 203.629 152.15 195.07C152.066 194.769 151.982 194.369 152.068 194.072C151.99 191.379 152.252 188.594 152.939 186.016C146.259 172.733 142.559 157.713 142.344 142.361C140.276 153.085 134.12 166.92 134.098 175.191C134.072 185.157 136.601 193.178 136.583 199.756C136.573 203.742 135.623 209.305 133.734 216.644C137.113 224.681 151.035 263.416 153.245 295.749C155.373 326.983 155.828 347.921 153.052 369.195C159.316 379.082 161.871 409.627 157.535 442.432C155.888 454.659 158.028 481.309 159.947 494.9C161.866 508.49 149.032 508.345 144.538 504.273C141.994 501.932 137.932 494.978 139.73 490.328C139.586 480.259 136.777 449.51 130.035 427.356C126.497 415.529 126.717 396.398 127.169 385.942C127.086 385.342 126.918 384.741 126.834 384.142C125.829 378.442 126.429 376.659 126.522 373.372C123.741 364.549 116.471 349.262 113.787 335.856C111.522 324.451 109.431 311.555 107.343 297.164L105.219 297.024C104.444 300.796 103.839 304.671 103.403 308.649C102.785 317.707 103.765 332.874 92.0127 373.809C91.9975 379.589 93.5255 380.316 92.9122 387.281C92.7367 389.37 92.4765 391.359 92.0461 393.443C94.5631 405.949 97.0579 426.925 89.2738 445.712C84.141 458.271 81.2047 475.955 82.9641 485.656C85.1621 490.182 84.1152 500.427 81.8136 502.975C77.6372 507.38 61.5813 504.183 63.573 490.169C65.5647 476.154 65.6205 454.928 62.2646 438.22C59.2436 423.413 60.3099 405.793 62.9944 386.909C62.9962 386.211 62.998 385.513 63.0001 384.716C63.0093 381.228 63.1027 378.041 63.2805 375.054C61.855 367.652 60.0014 361.438 58.1081 337.981C57.1197 326.003 58.3357 316.06 58.1104 304.794C58.8864 268.233 64.5259 224.59 67.3534 215.973L67.5234 215.977C67.1092 211.883 66.8652 207.692 66.7909 203.605C66.8043 198.522 69.4679 187.61 70.3445 177.462C71.0443 169.901 67.3259 161.757 64.8836 153.14C64.0054 163.886 59.472 174.762 53.5842 183.52C60.0412 216.93 49.0387 231.37 45.9095 257.72C46.3332 258.227 46.6719 258.732 47.0105 259.236C50.6505 264.887 51.2261 272.273 48.9077 281.198C50.0898 284.21 50.9352 285.921 51.4436 286.528C52.8848 287.951 54.0771 287.077 54.4903 291.57C53.2167 291.047 51.7734 290.422 50.5001 289.799C53.2988 292.145 54.1427 294.453 53.2023 296.528L49.4692 293.965C50.4015 294.98 50.993 296.287 51.1593 297.685C51.0707 299.079 50.7273 300.368 50.1292 301.552L46.66 295.606L42.0966 285.553L44.708 294.472C46.4855 297.297 47.4139 299.806 47.5786 301.802C47.7434 303.799 47.1453 304.983 45.6149 305.153C42.5678 300.311 40.7058 297.286 40.0285 296.277C38.2533 292.555 36.7334 288.739 35.469 284.728C34.8801 282.425 34.7247 276.841 35.0036 267.777C34.9233 265.982 34.9282 264.088 35.1029 262.298C36.5042 246.578 29.3422 222.722 31.4467 198.146C31.7992 193.369 32.7467 188.603 34.2034 184.146C34.5541 180.067 36.608 174.724 36.4472 171.233C35.0124 135.029 42.3039 141.945 41.9243 124.696C41.5446 107.448 40.6398 95.9694 46.2713 87.7054C50.6232 81.2109 60.4923 77.6123 66.528 77.2293C67.7208 76.1558 69.0831 75.2849 70.445 74.5137C74.4454 72.3975 78.6153 70.484 82.7846 68.7697C87.8196 61.0923 86.8897 59.181 86.9255 45.5281C86.962 31.6759 116.693 38.4229 116.678 44.3026C116.663 49.7837 114.336 62.1969 120.27 68.0906" fill="url(#paint0_linear_237_200)"/>
<path d="M166.903 285.532L167.839 294.14" stroke="#F29353" stroke-width="1.14" stroke-linecap="round"/>
<path d="M171.126 285.579L171.452 295.873L170.223 298.143" stroke="#F29353" stroke-width="1.14" stroke-linecap="round"/>
<path d="M176.035 282.633L175.838 292.612L174.183 296.969" stroke="#F29353" stroke-width="1.14" stroke-linecap="round"/>
<path d="M162.353 280.993L161.429 276.398L160.487 280.156" stroke="#F29353" stroke-width="1.14" stroke-linecap="round"/>
<path d="M162.48 256.807L161.532 260.673" stroke="#F29353" stroke-width="1.14" stroke-linecap="round"/>
<path d="M143.859 128.235C143.511 131.316 144.44 135.423 146.819 140.358" stroke="#EE8B48" stroke-width="1.14" stroke-linecap="round"/>
<path d="M157.415 175.301C155.711 178.047 154.431 181.101 153.66 184.366" stroke="#F29353" stroke-width="1.14" stroke-linecap="round"/>
<path d="M69.3141 380.617C68.0987 386.49 68.6827 391.193 70.9803 394.825C73.2779 398.458 74.4555 404.768 74.3422 413.754" stroke="#F08944" stroke-width="1.14" stroke-linecap="round"/>
<path d="M86.6245 380.167C87.9785 387.082 87.6191 392.071 85.4609 394.933" stroke="#F08944" stroke-width="1.14" stroke-linecap="round"/>
<path d="M69.7872 138.309C65.4943 135.167 63.5758 127.132 62.2268 127.008C60.8777 126.884 59.0095 131.687 56.3025 134.795" stroke="#EE8B48" stroke-width="1.14" stroke-linecap="round"/>
<path d="M63.563 132.085C63.6344 137.477 62.677 142.749 60.8632 147.607" stroke="#EE8B48" stroke-width="1.14" stroke-linecap="round"/>
<path d="M64.4608 130.665C67.722 138.733 73.524 141.155 83.5412 141.341C93.5583 141.527 101.138 140.413 101.752 131.356" stroke="#EE8B48" stroke-width="1.14" stroke-linecap="round"/>
<path d="M136.186 138.729C140.495 135.748 142.456 127.786 143.806 127.712C145.155 127.639 146.998 132.513 149.688 135.724" stroke="#EE8B48" stroke-width="1.14" stroke-linecap="round"/>
<path d="M141.529 131.687C138.225 139.637 132.41 141.846 122.393 141.662C112.376 141.477 104.803 140.083 104.239 131" stroke="#EE8B48" stroke-width="1.14" stroke-linecap="round"/>
<path d="M118.516 65.2188C118.85 68.0186 119.441 70.7236 120.288 73.4334" stroke="#F89451" stroke-width="1.14" stroke-linecap="round"/>
<path d="M85.991 66.0545C85.8988 68.3494 85.5481 70.6394 85.0255 72.8264" stroke="#F89451" stroke-width="1.14" stroke-linecap="round"/>
<path d="M129.271 378.818C129.085 384.796 130.179 389.303 132.639 392.241C135.098 395.179 136.87 400.995 138.123 409.791" stroke="#F08944" stroke-width="1.14" stroke-linecap="round"/>
<path d="M146.518 379.988C147.27 387.089 146.487 391.864 144.082 394.514" stroke="#F08944" stroke-width="1.14" stroke-linecap="round"/>
<path fill-rule="evenodd" clip-rule="evenodd" d="M53.1389 533.595C54.142 538.868 57.9397 542.519 63.6873 544.134C69.4348 545.749 79.7537 545.484 82.973 543.08C86.1923 540.675 92.4704 531.998 83.6217 517.831C86.0936 509.267 89.9984 502.915 83.3399 492.66C80.3632 500.024 71.0685 496.151 64.2253 492.827C62.62 492.098 59.2013 507.972 58.0848 515.575C54.1716 525.692 51.719 525.637 53.1389 533.595Z" fill="#C6C6C6"/>
<path fill-rule="evenodd" clip-rule="evenodd" d="M67.971 490.886C70.5968 489.062 73.9791 489.336 76.4264 491.669C77.1016 492.279 78.1957 494.681 79.8884 494.124C82.512 493.291 82.2654 490.116 83.1981 489.047C84.1308 487.978 86.7339 496.259 84.3487 503.932C81.9634 511.606 86.9265 523.506 86.9265 523.506C86.9265 523.506 89.3463 538.122 80.5501 538.421C78.0126 538.562 78.1016 536.583 70.8277 536.915C66.4295 537.114 67.3529 540.206 60.7628 537.284C54.1727 534.363 52.4958 527.887 53.7717 524.646C55.1325 521.209 57.6829 515.323 59.1341 509.312C59.3255 499.41 60.8628 492.708 63.577 489.203C63.6571 491.186 64.8384 492.401 65.4304 492.414C67.2906 492.555 67.2931 491.465 67.971 490.886Z" fill="black"/>
<path fill-rule="evenodd" clip-rule="evenodd" d="M64.755 500.667L75.3139 505.36L66.8452 511.211L75.8819 515.969L65.7341 516.534L75.5555 510.713L66.6036 505.858L76.5943 499.942L64.755 500.667Z" stroke="white" stroke-width="1.07" stroke-linecap="round" stroke-linejoin="round"/>
<path fill-rule="evenodd" clip-rule="evenodd" d="M169.215 535.064C168.358 540.394 164.628 543.976 158.958 545.533C153.289 547.091 142.887 546.858 139.594 544.407C136.301 542.055 129.808 533.291 138.382 519.217C135.695 510.637 131.649 504.305 138.015 494.046C141.212 501.448 150.355 497.591 157.128 494.275C158.737 493.519 162.507 509.454 163.843 517.013C168.049 527.211 170.502 527.167 169.215 535.064Z" fill="#C6C6C6"/>
<path fill-rule="evenodd" clip-rule="evenodd" d="M153.43 492.263C150.728 490.42 147.344 490.74 144.971 493.064C144.293 493.742 143.273 495.998 141.583 495.465C138.964 494.614 139.901 491.267 138.973 490.256C138.045 489.244 134.813 497.592 137.333 505.275C139.937 512.961 135.259 524.841 135.259 524.841C135.259 524.841 133.197 539.455 142.076 539.753C144.613 539.81 144.532 537.926 151.72 538.285C156.117 538.482 155.264 541.633 161.867 538.71C168.47 535.787 169.837 529.28 168.491 526.08C167.062 522.581 164.369 516.677 162.691 510.696C162.206 500.78 160.53 494.007 157.747 490.577C157.657 492.556 156.555 493.819 156.048 493.807C154.187 493.964 154.105 492.872 153.43 492.263Z" fill="black"/>
<path fill-rule="evenodd" clip-rule="evenodd" d="M156.9 502.113L146.491 506.732L155.016 512.665L146.128 517.416L156.357 518.041L146.31 512.074L155.197 507.322L145.065 501.354L156.9 502.113Z" stroke="white" stroke-width="1.07" stroke-linecap="round" stroke-linejoin="round"/>
<g opacity="0.42" filter="url(#filter0_f_237_200)">
<path fill-rule="evenodd" clip-rule="evenodd" d="M89.1143 48.6136C89.3521 54.5653 90.4099 69.8499 95.7207 73.4208C101.032 76.9918 107.281 77.0124 110.498 73.704C113.716 70.3956 116.87 58.9583 116.985 47.5618C117.849 39.8471 86.9386 41.0389 89.1143 48.6136Z" fill="#915D2E" fill-opacity="0.7"/>
</g>
<path fill-rule="evenodd" clip-rule="evenodd" d="M86.2133 50.1922C86.5391 56.8216 93.2915 65.7936 96.0788 68.5348C98.866 71.276 106.141 72.455 109.363 68.8832C112.586 65.3114 115.471 61.1378 116.153 58.6852C116.834 56.2326 118.96 50.8533 119.302 49.2812C121.492 54.1808 129.742 32.4593 122.462 33.8495C122.473 28.0194 123.008 13.8035 116.251 7.30187C109.494 0.80024 100.696 -0.517499 91.463 4.28014C82.2302 9.07779 80.5175 19.7053 82.6056 33.99C84.297 34.5285 76.2624 32.2426 79.3747 42.0085C81.4804 47.1035 81.4717 51.6489 86.2133 50.1922Z" fill="#FFD4AB"/>
<path d="M101.619 68.5762L103.553 68.5925" stroke="#EA833E" stroke-width="1.14" stroke-linecap="round"/>
<path d="M123.337 37.0065C120.374 39.4289 118.849 41.2839 118.845 42.6722" stroke="#EA833E" stroke-width="1.14" stroke-linecap="round"/>
<path d="M121.13 40.3645L121.124 42.7548L118.823 46.4956" stroke="#EA833E" stroke-width="1.14" stroke-linecap="round"/>
<path d="M80.5922 38.1982C82.2793 38.8251 83.626 40.4364 84.1274 42.4279" stroke="#EA833E" stroke-width="1.14" stroke-linecap="round"/>
<path d="M82.2567 40.0125L82.6705 43.9032L84.7842 46.2336" stroke="#EA833E" stroke-width="1.14" stroke-linecap="round"/>
<path opacity="0.75" fill-rule="evenodd" clip-rule="evenodd" d="M133.865 216.372C122.207 225.311 73.1991 223.388 67.6602 215.747C64.0691 199.131 69.7261 189.195 70.2363 175.519C70.477 169.066 66.8255 163.236 65.6758 153.599C64.6463 148.373 64.1371 143.949 64.1482 140.328C69.6415 133.502 72.4104 122.85 72.4548 108.37C72.5191 87.4369 69.1539 82.2752 67.1472 76.7516C66.6789 75.7454 69.0819 74.1141 71.7406 72.8976C74.8067 71.4947 78.0644 69.4609 78.5017 70.2786C78.4959 72.1606 84.822 99.3732 101.985 99.654C119.147 99.9348 124.511 95.388 129.193 70.9192C128.999 70.2115 131.272 70.8405 135.075 72.1003C138.877 73.3601 141.781 74.5488 141.022 75.0994C139.84 75.6583 139.379 79.7371 136.479 105.596C133.579 131.456 139.697 131.708 143.122 136.494C143.208 140.388 142.715 144.898 141.642 150.024C136.126 164.789 134.21 176.649 135.895 185.605C138.422 199.039 138.773 210.92 133.865 216.372Z" fill="#FFFAF9"/>
<path opacity="0.85" fill-rule="evenodd" clip-rule="evenodd" d="M104.237 311.421L105.034 302.007L107.161 302.004L107.964 311.482C124.873 311.83 136.778 310.87 143.679 308.602C149.132 306.81 152.58 301.885 154.024 293.83C150.341 269.776 146.905 252.418 143.716 241.755C140.601 231.341 135.671 216.784 133.563 216.749C102.221 226.537 73.1033 219.93 67.6892 216.268C65.9676 216.101 65.2142 223.034 64.059 229.057C62.2665 238.401 58.3986 279.128 57.8011 295.526C57.7644 307.473 73.2431 312.771 104.237 311.421Z" fill="black"/>
<g filter="url(#filter1_d_237_200)">
<path d="M171.146 87C191.321 89.9407 204 94.197 204 98.9315C204 107.806 159.452 115 104.5 115C49.5477 115 5 107.806 5 98.9315C5 94.3833 16.7011 90.2765 35.5071 87.3533" stroke="#E95D5C" stroke-width="2" stroke-linecap="round"/>
</g>
<g filter="url(#filter2_d_237_200)">
<path d="M141.849 168C153.609 170.941 161 175.197 161 179.932C161 188.806 135.033 196 103 196C70.9675 196 45 188.806 45 179.932C45 175.383 51.8207 171.276 62.783 168.353" stroke="#E95D5C" stroke-width="2" stroke-linecap="round"/>
</g>
<g filter="url(#filter3_d_237_200)">
<path d="M155.401 253C170.506 255.941 180 260.197 180 264.932C180 273.806 146.645 281 105.5 281C64.3548 281 31 273.806 31 264.932C31 260.383 39.7611 256.276 53.842 253.353" stroke="#E95D5C" stroke-width="2" stroke-linecap="round"/>
</g>
<defs>
<filter id="filter0_f_237_200" x="85.0046" y="38.3235" width="35.9979" height="41.8201" filterUnits="userSpaceOnUse" color-interpolation-filters="sRGB">
<feFlood flood-opacity="0" result="BackgroundImageFix"/>
<feBlend mode="normal" in="SourceGraphic" in2="BackgroundImageFix" result="shape"/>
<feGaussianBlur stdDeviation="2" result="effect1_foregroundBlur_237_200"/>
</filter>
<filter id="filter1_d_237_200" x="0" y="85.9998" width="209" height="38.0002" filterUnits="userSpaceOnUse" color-interpolation-filters="sRGB">
<feFlood flood-opacity="0" result="BackgroundImageFix"/>
<feColorMatrix in="SourceAlpha" type="matrix" values="0 0 0 0 0 0 0 0 0 0 0 0 0 0 0 0 0 0 127 0" result="hardAlpha"/>
<feOffset dy="4"/>
<feGaussianBlur stdDeviation="2"/>
<feComposite in2="hardAlpha" operator="out"/>
<feColorMatrix type="matrix" values="0 0 0 0 0.913725 0 0 0 0 0.364706 0 0 0 0 0.360784 0 0 0 0.37 0"/>
<feBlend mode="normal" in2="BackgroundImageFix" result="effect1_dropShadow_237_200"/>
<feBlend mode="normal" in="SourceGraphic" in2="effect1_dropShadow_237_200" result="shape"/>
</filter>
<filter id="filter2_d_237_200" x="40" y="167" width="126" height="38.0002" filterUnits="userSpaceOnUse" color-interpolation-filters="sRGB">
<feFlood flood-opacity="0" result="BackgroundImageFix"/>
<feColorMatrix in="SourceAlpha" type="matrix" values="0 0 0 0 0 0 0 0 0 0 0 0 0 0 0 0 0 0 127 0" result="hardAlpha"/>
<feOffset dy="4"/>
<feGaussianBlur stdDeviation="2"/>
<feComposite in2="hardAlpha" operator="out"/>
<feColorMatrix type="matrix" values="0 0 0 0 0.913725 0 0 0 0 0.364706 0 0 0 0 0.360784 0 0 0 0.37 0"/>
<feBlend mode="normal" in2="BackgroundImageFix" result="effect1_dropShadow_237_200"/>
<feBlend mode="normal" in="SourceGraphic" in2="effect1_dropShadow_237_200" result="shape"/>
</filter>
<filter id="filter3_d_237_200" x="26" y="252" width="159" height="38.0002" filterUnits="userSpaceOnUse" color-interpolation-filters="sRGB">
<feFlood flood-opacity="0" result="BackgroundImageFix"/>
<feColorMatrix in="SourceAlpha" type="matrix" values="0 0 0 0 0 0 0 0 0 0 0 0 0 0 0 0 0 0 127 0" result="hardAlpha"/>
<feOffset dy="4"/>
<feGaussianBlur stdDeviation="2"/>
<feComposite in2="hardAlpha" operator="out"/>
<feColorMatrix type="matrix" values="0 0 0 0 0.913725 0 0 0 0 0.364706 0 0 0 0 0.360784 0 0 0 0.37 0"/>
<feBlend mode="normal" in2="BackgroundImageFix" result="effect1_dropShadow_237_200"/>
<feBlend mode="normal" in="SourceGraphic" in2="effect1_dropShadow_237_200" result="shape"/>
</filter>
<linearGradient id="paint0_linear_237_200" x1="104.878" y1="-33.2254" x2="122.852" y2="631.414" gradientUnits="userSpaceOnUse">
<stop stop-color="#FFD6A7"/>
<stop offset="0.49" stop-color="#FFCFB0"/>
<stop offset="1" stop-color="#FFB783"/>
</linearGradient>
</defs>
</svg>
