<svg width="24" height="35" viewBox="0 0 24 35" fill="none" xmlns="http://www.w3.org/2000/svg">
<path d="M19.1583 2.33594H4.18405C3.34725 2.33594 2.64258 2.95885 2.64258 3.69856V18.8821C2.64258 19.6218 3.34725 20.2447 4.18405 20.2447H19.1583C19.9951 20.2447 20.6998 19.6218 20.6998 18.8821V3.69856C20.6998 2.95885 19.9951 2.33594 19.1583 2.33594ZM7.92762 14.4049H4.40426V13.2369H7.92762V14.4049ZM13.6531 14.4049H9.6893V13.2369H13.6531V14.4049ZM18.9381 14.4049H15.4148V13.2369H18.9381V14.4049Z" fill="#E79B38"/>
<path d="M20.9199 0H2.42231C1.10105 0 0 0.973304 0 2.14127V21.1402C0 22.2692 0.484462 23.3204 1.32126 24.1379L3.5674 26.3181L3.61144 26.3571C5.15291 27.8365 5.32908 27.9922 5.72546 27.9922H9.24882V33.1313L9.86541 35H13.5209L14.1375 33.1313V28.0311H17.6608C18.0572 28.0311 18.2334 27.8754 19.7749 26.396L22.065 24.1379C22.9018 23.3204 23.3863 22.2303 23.3863 21.1402V2.14127C23.3423 0.973304 22.2412 0 20.9199 0ZM6.6063 26.8632V25.6952H9.24882V26.8632H6.6063ZM12.3318 31.9244V29.5884H11.0105V31.9244H10.5701V25.6952H12.7722V31.9244H12.3318ZM10.8343 33.871L10.5701 33.0923H12.7281L12.4639 33.871H10.8343ZM14.0934 25.6952H16.736V26.8632H14.0934V25.6952ZM22.021 21.1402C22.021 21.9577 21.6687 22.7364 21.0521 23.3593L18.8059 25.5395L18.7619 25.5784C18.5417 25.812 18.2774 26.0456 18.0572 26.2403V25.0723C18.0572 24.7608 17.7489 24.4883 17.3966 24.4883H5.94567C5.59333 24.4883 5.28504 24.7608 5.28504 25.0723V26.2403C5.06483 26.0067 4.80058 25.7731 4.58037 25.5784L2.29018 23.3593C1.67359 22.7364 1.32126 21.9577 1.32126 21.1402V2.14127C1.32126 1.59622 1.80572 1.16796 2.42231 1.16796H20.9199C21.5365 1.16796 22.021 1.59622 22.021 2.14127V21.1402Z" fill="#E79B38"/>
<path d="M6.80062 21.5864C6.18145 22.1337 5.98625 22.8486 6.36464 23.1831C6.74302 23.5176 7.5517 23.345 8.17088 22.7977C8.79005 22.2503 8.98525 21.5355 8.60687 21.201C8.22848 20.8665 7.4198 21.0391 6.80062 21.5864Z" fill="#E79B38"/>
<path d="M14.7302 21.5859C14.111 22.1333 13.9158 22.8481 14.2942 23.1826C14.6726 23.5171 15.4813 23.3445 16.1004 22.7972C16.7196 22.2499 16.9148 21.535 16.5364 21.2005C16.158 20.866 15.3494 21.0386 14.7302 21.5859Z" fill="#E79B38"/>
<path d="M10.7666 21.5859C10.1474 22.1333 9.95219 22.8481 10.3306 23.1826C10.709 23.5171 11.5176 23.3445 12.1368 22.7972C12.756 22.2499 12.9512 21.535 12.5728 21.2005C12.1944 20.866 11.3857 21.0386 10.7666 21.5859Z" fill="#E79B38"/>
</svg>
