<svg width="34" height="28" viewBox="0 0 34 28" fill="none" xmlns="http://www.w3.org/2000/svg">
<path fill-rule="evenodd" clip-rule="evenodd" d="M16.969 1.93869C25.17 -1.77238 30.1852 0.358963 32.2873 4.01302C33.4107 5.96601 34.3154 9.43054 33.7785 13.0457H26.1788L25.1866 11.2183C24.7761 10.355 23.4021 10.2645 22.8675 11.0977L22.0578 12.3585L20.3993 6.52725C20.1326 5.35315 18.2322 5.28342 17.8736 6.45214L16.0974 12.2287L15.5092 10.3046C15.2477 9.43632 13.9805 9.15242 13.2903 9.84194L10.0743 13.0457H0.158967C-0.377894 9.43054 0.526751 5.96601 1.65058 4.01302C3.75227 0.358963 8.76747 -1.77238 16.969 1.93869ZM33.2343 15.3411C31.4768 20.6419 22.4182 26.8287 16.969 27.6819C11.5197 26.8283 2.4611 20.6423 0.703671 15.3415H10.6517C11.0788 15.3415 11.4574 15.1589 11.6941 14.8781L13.631 12.9486L14.8385 16.9193C15.181 18.0518 16.999 18.0403 17.3433 16.9232L19.0785 11.2838L20.3304 15.6863C20.6237 16.724 22.2164 16.8604 22.7485 15.9209L23.8985 14.1293L24.2013 14.6867C24.4231 15.0969 24.8855 15.3365 25.3679 15.3369L33.2343 15.3411Z" fill="#CA6B6E"/>
</svg>
