<svg width="48" height="48" viewBox="0 0 48 48" fill="none" xmlns="http://www.w3.org/2000/svg">
<path d="M42.3333 2H5.66667C4.69421 2 3.76158 2.38631 3.07394 3.07394C2.38631 3.76158 2 4.69421 2 5.66667V42.3333C2 43.3058 2.38631 44.2384 3.07394 44.9261C3.76158 45.6137 4.69421 46 5.66667 46H42.3333C43.3058 46 44.2384 45.6137 44.9261 44.9261C45.6137 44.2384 46 43.3058 46 42.3333V5.66667C46 4.69421 45.6137 3.76158 44.9261 3.07394C44.2384 2.38631 43.3058 2 42.3333 2Z" stroke="#303030" stroke-width="4" stroke-linejoin="round"/>
<path d="M11.0933 31.1316L18.0074 24.2175L23.3705 29.5672L36.2222 16.6666" stroke="#303030" stroke-width="4" stroke-linecap="round" stroke-linejoin="round"/>
<path d="M26.4443 16.6666H36.2221V26.4444" stroke="#303030" stroke-width="4" stroke-linecap="round" stroke-linejoin="round"/>
</svg>
