<svg width="49" height="51" viewBox="0 0 49 51" fill="none" xmlns="http://www.w3.org/2000/svg">
<path d="M16.8438 44.625C18.5351 44.625 19.9062 43.1979 19.9062 41.4375C19.9062 39.6771 18.5351 38.25 16.8438 38.25C15.1524 38.25 13.7812 39.6771 13.7812 41.4375C13.7812 43.1979 15.1524 44.625 16.8438 44.625Z" fill="black"/>
<path d="M38.2812 44.625C39.9726 44.625 41.3438 43.1979 41.3438 41.4375C41.3438 39.6771 39.9726 38.25 38.2812 38.25C36.5899 38.25 35.2188 39.6771 35.2188 41.4375C35.2188 43.1979 36.5899 44.625 38.2812 44.625Z" fill="black"/>
<path d="M43.7172 12.0308C43.5021 11.7569 43.231 11.5364 42.9238 11.3851C42.6166 11.2338 42.2808 11.1556 41.9409 11.1562H12.8137L12.227 7.69184C12.1645 7.32281 11.979 6.98853 11.7032 6.74771C11.4273 6.50688 11.0788 6.37492 10.7188 6.375H4.59375C4.18764 6.375 3.79816 6.54291 3.51099 6.8418C3.22383 7.14069 3.0625 7.54606 3.0625 7.96875C3.0625 8.39144 3.22383 8.79681 3.51099 9.0957C3.79816 9.39459 4.18764 9.5625 4.59375 9.5625H9.43441L13.8042 35.3394C13.8668 35.7084 14.0523 36.0427 14.3281 36.2835C14.6039 36.5244 14.9525 36.6563 15.3125 36.6562H39.8125C40.2186 36.6562 40.6081 36.4883 40.8953 36.1895C41.1824 35.8906 41.3438 35.4852 41.3438 35.0625C41.3438 34.6398 41.1824 34.2344 40.8953 33.9355C40.6081 33.6367 40.2186 33.4688 39.8125 33.4688H16.5968L16.0571 30.2812H39.1847C39.7157 30.2805 40.2302 30.0889 40.6411 29.7388C41.052 29.3886 41.334 28.9015 41.4395 28.3598L44.1957 14.016C44.2621 13.6689 44.2536 13.3107 44.1709 12.9674C44.0881 12.6241 43.9332 12.3042 43.7172 12.0308Z" fill="black"/>
<ellipse cx="36.5" cy="11" rx="12.5" ry="11" fill="#D52626"/>
</svg>
